<svg xmlns="http://www.w3.org/2000/svg" width="20.199" height="20.681" viewBox="0 0 20.199 20.681">
  <g id="actions" transform="translate(-1250 -1023)">
    <g id="ic_favorite_24px" transform="translate(1043.273 425.232)">
      <path id="Path_5073" data-name="Path 5073" d="M73.9,9.79a1.819,1.819,0,0,1,.508.91,1.828,1.828,0,0,1,.26-.159,1.133,1.133,0,0,0-1.822-1.3l-.048.05A1.812,1.812,0,0,1,73.9,9.79Z" transform="translate(149.145 589.947)" fill="#8899a6"/>
      <path id="Path_5074" data-name="Path 5074" d="M45.659,9.232a2.121,2.121,0,0,1,.178.686l3.7-3.8a1.824,1.824,0,0,1,.482-.347A1.131,1.131,0,0,0,48.2,4.456L44.722,8.033A3.4,3.4,0,0,1,45.659,9.232Z" transform="translate(170.918 593.657)" fill="#8899a6"/>
      <path id="Path_5075" data-name="Path 5075" d="M6.132,25.979a7.4,7.4,0,0,1,2.11-5.3L12.409,16.4a1.653,1.653,0,0,0-.017-1.194,2.786,2.786,0,0,0-.8-1L6.909,19.022A6.752,6.752,0,0,0,6.4,27.846,7.475,7.475,0,0,1,6.132,25.979Z" transform="translate(201.728 585.827)" fill="#8899a6"/>
      <path id="Path_5076" data-name="Path 5076" d="M15.07,20.749l4.683-4.811a2.779,2.779,0,0,1,.8,1,1.684,1.684,0,0,1-.361,1.806l-2.659,2.748a.269.269,0,0,0,.385.375l7.641-7.849A1.134,1.134,0,1,1,27.182,15.6l-5.536,5.684a.27.27,0,0,0,.388.377l6.392-6.571a1.135,1.135,0,0,1,1.626,1.583l-6.394,6.569a.269.269,0,0,0,.385.375l5.534-5.686A1.135,1.135,0,1,1,31.2,19.514L25.667,25.2a.269.269,0,0,0,.386.376l3.268-3.36A1.135,1.135,0,1,1,30.947,23.8l-6.2,6.371a6.751,6.751,0,0,1-9.676-9.417" transform="translate(195.401 586.242)" fill="#8899a6"/>
    </g>
  </g>
</svg>
