<svg xmlns="http://www.w3.org/2000/svg" xmlns:xlink="http://www.w3.org/1999/xlink" width="250" height="59" viewBox="0 0 250 59">
    <defs>
        <linearGradient id="b" x1="0%" y1="100%" y2="0%">
            <stop offset="0%" stop-color="#FECE00"/>
            <stop offset="100%" stop-color="#FF9000"/>
        </linearGradient>
        <path id="a" d="M19.625 39.062c-4.347 0-8.433 1.784-10.695 4.363-2.634-3.96-4.18-8.755-4.18-13.925 0-13.577 10.633-24.583 23.748-24.583 1.457 0 2.881.143 4.265.404l-6.3 35.652c-1.698-1.187-4.076-1.91-6.838-1.91zm22.96-29.351c5.86 4.476 9.663 11.672 9.663 19.789 0 13.576-10.633 24.583-23.75 24.583-2.045 0-4.03-.267-5.924-.77 3.291-1.305 5.793-3.616 6.444-6.276l.011.01.026-.15c.011-.049.03-.096.039-.145.015-.077.016-.152.028-.23l5.591-30.13c3.04.549 5.434 1.85 7.608 3.978 2.991 2.93 3.41 6.393 3.41 6.393 3.538-7.364-.093-14.216-2.597-16.548l-.548-.504z"/>
    </defs>
    <g fill="none" fill-rule="evenodd">
        <use fill="url(#b)" xlink:href="#a"/>
        <path fill="#000" d="M78.286 21.508a47.101 47.101 0 0 0 1.595-.502 19.922 19.922 0 0 1 1.922-.523c.714-.16 1.514-.29 2.403-.392a27.4 27.4 0 0 1 3.08-.153c1.398 0 2.555.175 3.473.524a7.753 7.753 0 0 1 2.512 1.569 21.943 21.943 0 0 1 3.21-1.504c1.064-.392 2.31-.589 3.736-.589 1.37 0 2.541.182 3.517.545.976.364 1.784.887 2.425 1.57a6.168 6.168 0 0 1 1.398 2.44c.29.945.437 1.984.437 3.117 0 .523-.037 1.075-.11 1.657a14.674 14.674 0 0 1-.327 1.743l-2.971 12.38h-6.51l2.884-12.118c.087-.407.182-.865.284-1.373.102-.509.153-1.01.153-1.504 0-.814-.19-1.519-.568-2.114-.379-.596-1.121-.894-2.228-.894-.612 0-1.194.11-1.748.327-.553.218-1.048.443-1.485.676.058.232.087.45.087.654v.566c0 .523-.036 1.075-.109 1.657a14.674 14.674 0 0 1-.328 1.743l-2.97 12.38h-6.51l2.884-12.118c.087-.407.182-.865.284-1.373.102-.509.152-1.01.152-1.504 0-.814-.189-1.519-.567-2.114-.38-.596-1.122-.894-2.228-.894-.466 0-.86.022-1.18.066-.32.043-.699.109-1.136.196l-4.238 17.74H73l5.286-21.881zm55.745-1.046l-3.102 13.033a14.444 14.444 0 0 0-.35 4.99c.176 1.672.51 3.161 1.006 4.469l-5.81.828a21.4 21.4 0 0 1-.918-2.136 12.225 12.225 0 0 1-2.752 1.613c-1.02.436-2.156.654-3.408.654-1.718 0-3.11-.313-4.172-.937-1.063-.625-1.857-1.453-2.381-2.485-.524-1.032-.808-2.216-.852-3.553-.044-1.336.11-2.702.459-4.097l2.97-12.38h6.51l-2.927 12.293c-.146.64-.27 1.293-.372 1.961a6.107 6.107 0 0 0-.021 1.853c.087.567.313 1.032.677 1.395.364.363.939.545 1.725.545.67 0 1.29-.124 1.857-.37.568-.248 1.172-.676 1.813-1.287.058-.726.153-1.489.284-2.288.131-.8.27-1.533.415-2.201l2.84-11.9h6.51zm8.781 18.307c1.486 0 2.505-.21 3.058-.632.554-.421.83-.879.83-1.373 0-.32-.05-.596-.152-.828a1.881 1.881 0 0 0-.503-.654 5.222 5.222 0 0 0-.961-.632 27.752 27.752 0 0 0-1.573-.763 22.505 22.505 0 0 1-2.053-1.024 7.141 7.141 0 0 1-1.682-1.308 5.817 5.817 0 0 1-1.136-1.743c-.277-.654-.415-1.432-.415-2.333 0-2.353.867-4.213 2.6-5.579 1.732-1.366 4.259-2.049 7.58-2.049 1.572 0 2.97.175 4.193.523 1.224.35 2.214.727 2.971 1.134l-2.228 4.838c-.612-.32-1.398-.625-2.36-.915a9.778 9.778 0 0 0-2.839-.436c-.408 0-.808.022-1.201.065a3.773 3.773 0 0 0-1.092.284 2.022 2.022 0 0 0-.809.61c-.204.261-.305.61-.305 1.046 0 .581.225 1.017.677 1.308.451.29 1.085.639 1.9 1.046 1.136.552 2.083 1.06 2.84 1.525.757.465 1.361.96 1.813 1.483.451.523.779 1.118.983 1.787.204.668.306 1.453.306 2.354 0 .93-.197 1.845-.59 2.746-.393.9-1.012 1.7-1.857 2.397-.845.698-1.922 1.264-3.233 1.7-1.31.436-2.883.654-4.718.654-1.136 0-2.163-.073-3.08-.218a17.293 17.293 0 0 1-2.425-.545 13.004 13.004 0 0 1-1.769-.675c-.48-.233-.852-.422-1.114-.567l2.228-4.97c.495.291 1.267.654 2.316 1.09 1.048.436 2.315.654 3.8.654zm20.096 4.62h-6.465l5.46-22.927h6.51l-5.505 22.928zm3.146-25.717a4.019 4.019 0 0 1-2.447-.807c-.728-.537-1.092-1.358-1.092-2.462 0-.61.124-1.185.372-1.722a4.562 4.562 0 0 1 .983-1.395 4.73 4.73 0 0 1 1.42-.937 4.309 4.309 0 0 1 1.725-.349c.903 0 1.718.269 2.447.806.728.538 1.092 1.359 1.092 2.463 0 .61-.124 1.184-.372 1.722a4.562 4.562 0 0 1-.983 1.395 4.73 4.73 0 0 1-1.42.937 4.309 4.309 0 0 1-1.725.349zm4.063 16.564c0-1.976.32-3.836.961-5.58.64-1.743 1.558-3.269 2.752-4.577 1.194-1.307 2.643-2.339 4.347-3.094 1.704-.756 3.604-1.134 5.701-1.134 1.311 0 2.483.124 3.517.37 1.034.248 1.973.575 2.818.982l-2.228 5.056a22.133 22.133 0 0 0-1.813-.632c-.626-.189-1.39-.283-2.294-.283-2.184 0-3.902.733-5.155 2.2-1.252 1.468-1.878 3.466-1.878 5.994 0 1.483.32 2.681.96 3.597.642.915 1.821 1.373 3.54 1.373.844 0 1.66-.087 2.446-.262a11.89 11.89 0 0 0 2.097-.654l.48 5.187c-.815.32-1.71.603-2.686.85s-2.163.371-3.56.371c-1.806 0-3.336-.262-4.588-.785-1.252-.523-2.286-1.227-3.102-2.114a7.983 7.983 0 0 1-1.769-3.116 12.757 12.757 0 0 1-.546-3.75zM200.174 44c-1.544 0-2.884-.232-4.02-.697-1.135-.465-2.075-1.12-2.817-1.962-.743-.843-1.304-1.838-1.682-2.986-.379-1.148-.568-2.42-.568-3.814 0-1.744.284-3.487.852-5.23a14.96 14.96 0 0 1 2.512-4.708 13.418 13.418 0 0 1 4.063-3.422c1.601-.887 3.436-1.33 5.504-1.33 1.515 0 2.847.233 3.998.698 1.15.465 2.097 1.119 2.84 1.961.742.843 1.303 1.838 1.681 2.986.379 1.148.568 2.42.568 3.814 0 1.744-.277 3.487-.83 5.231a15.104 15.104 0 0 1-2.446 4.708c-1.078 1.395-2.425 2.535-4.041 3.422-1.617.886-3.488 1.329-5.614 1.329zm3.233-18.656c-.962 0-1.806.276-2.534.828a7.105 7.105 0 0 0-1.835 2.092 10.309 10.309 0 0 0-1.114 2.768 11.92 11.92 0 0 0-.372 2.855c0 1.482.233 2.623.7 3.422.465.8 1.31 1.199 2.533 1.199.961 0 1.806-.276 2.534-.829a7.105 7.105 0 0 0 1.835-2.092c.495-.843.867-1.765 1.114-2.768a11.92 11.92 0 0 0 .371-2.855c0-1.482-.233-2.623-.699-3.422-.466-.799-1.31-1.198-2.533-1.198zm17.911 18.046h-6.465l5.46-22.928h6.51l-5.505 22.928zm3.146-25.718a4.019 4.019 0 0 1-2.447-.807c-.728-.537-1.092-1.358-1.092-2.462 0-.61.124-1.185.372-1.722a4.562 4.562 0 0 1 .983-1.395 4.73 4.73 0 0 1 1.42-.937 4.309 4.309 0 0 1 1.725-.349c.903 0 1.718.269 2.446.806.729.538 1.093 1.359 1.093 2.463 0 .61-.124 1.184-.372 1.722a4.562 4.562 0 0 1-.983 1.395 4.73 4.73 0 0 1-1.42.937 4.309 4.309 0 0 1-1.725.349zm8.038 3.836a82.333 82.333 0 0 0 1.639-.502 22.14 22.14 0 0 1 2.01-.523c.742-.16 1.572-.29 2.49-.392a28.606 28.606 0 0 1 3.123-.153c3.437 0 5.796.988 7.077 2.965 1.282 1.976 1.5 4.678.656 8.107l-2.971 12.38h-6.51l2.884-12.118c.175-.756.313-1.49.415-2.201.102-.712.095-1.337-.022-1.875a2.215 2.215 0 0 0-.808-1.308c-.422-.334-1.07-.5-1.944-.5-.845 0-1.704.086-2.578.26l-4.237 17.742h-6.51l5.286-21.882z"/>
    </g>
</svg>
