<?xml version="1.0" encoding="UTF-8"?>
<svg width="24px" height="24px" viewBox="0 0 24 24" version="1.1" xmlns="http://www.w3.org/2000/svg" xmlns:xlink="http://www.w3.org/1999/xlink">
    <!-- Generator: Sketch 47.1 (45422) - http://www.bohemiancoding.com/sketch -->
    <desc>Created with Sketch.</desc>
    <defs></defs>
    <g id="Landing" stroke="none" stroke-width="1" fill="none" fill-rule="evenodd">
        <g id="logo-slack" fill-rule="nonzero" fill="#FBFAF8">
            <rect id="Rectangle-path" transform="translate(11.993708, 11.982484) rotate(-108.518296) translate(-11.993708, -11.982484) " x="10.3624958" y="10.2950234" width="3.26242333" height="3.37492069"></rect>
            <rect id="Rectangle-path" transform="translate(11.993745, 11.982521) rotate(-108.518296) translate(-11.993745, -11.982521) " x="10.3625333" y="10.2950609" width="3.26242333" height="3.37492069"></rect>
            <path d="M22.9875,8.7 C20.5125,0.45 16.95,-1.4625 8.7,1.0125 C0.45,3.4875 -1.4625,7.05 1.0125,15.3 C3.4875,23.55 7.05,25.4625 15.3,22.9875 C23.55,20.5125 25.4625,16.95 22.9875,8.7 Z M18.825,14.0625 L17.2875,14.5875 L17.8125,16.2 C18.0375,16.8375 17.6625,17.55 17.025,17.775 C16.875,17.8125 16.725,17.85 16.6125,17.85 C16.0875,17.85 15.6375,17.5125 15.45,16.9875 L14.925,15.375 L11.7,16.4625 L12.225,18.075 C12.45,18.7125 12.075,19.425 11.4375,19.65 C11.2875,19.6875 11.1375,19.725 11.025,19.725 C10.5,19.725 10.05,19.3875 9.8625,18.8625 L9.3375,17.25 L7.8,17.775 C7.65,17.8125 7.5,17.85 7.3875,17.85 C6.8625,17.85 6.4125,17.5125 6.225,16.9875 C6,16.35 6.375,15.6375 7.0125,15.4125 L8.55,14.8875 L7.5,11.8125 L5.9625,12.3375 C5.8125,12.375 5.6625,12.4125 5.55,12.4125 C5.025,12.4125 4.575,12.075 4.3875,11.55 C4.1625,10.9125 4.5375,10.2 5.175,9.975 L6.7125,9.45 L6.1875,7.8375 C5.9625,7.2 6.3375,6.4875 6.975,6.2625 C7.6125,6.0375 8.325,6.4125 8.55,7.05 L9.075,8.6625 L12.3,7.575 L11.775,5.9625 C11.55,5.325 11.925,4.6125 12.5625,4.3875 C13.2,4.1625 13.9125,4.5375 14.1375,5.175 L14.6625,6.7875 L16.2,6.2625 C16.8375,6.0375 17.55,6.4125 17.775,7.05 C18,7.6875 17.625,8.4 16.9875,8.625 L15.45,9.15 L16.5,12.225 L18.0375,11.7 C18.675,11.475 19.3875,11.85 19.6125,12.4875 C19.8375,13.125 19.4625,13.8375 18.825,14.0625 Z" id="Shape"></path>
        </g>
    </g>
</svg>