<?xml version="1.0" encoding="UTF-8"?>
<svg width="24px" height="28px" viewBox="0 0 24 28" version="1.1" xmlns="http://www.w3.org/2000/svg" xmlns:xlink="http://www.w3.org/1999/xlink">
    <!-- Generator: Sketch 47.1 (45422) - http://www.bohemiancoding.com/sketch -->
    <desc>Created with Sketch.</desc>
    <defs></defs>
    <g id="Landing" stroke="none" stroke-width="1" fill="none" fill-rule="evenodd">
        <g id="logo---bitcoin" fill-rule="nonzero" fill="#FBFAF8">
            <path d="M17.1386182,7.16465455 L17.9620364,3.86050909 L15.9512727,3.35912727 L15.1488,6.57556364 C14.6199273,6.44334545 14.0766545,6.31898182 13.5373091,6.19592727 L14.3450182,2.95854545 L12.3355636,2.45716364 L11.5108364,5.76 C11.0736,5.66050909 10.6442182,5.56232727 10.2266182,5.4576 L10.2292364,5.44712727 L7.45527273,4.75461818 L6.91985455,6.90283636 C6.91985455,6.90283636 8.41221818,7.24450909 8.3808,7.26545455 C9.19505455,7.46836364 9.34298182,8.00770909 9.31810909,8.43447273 L7.06123636,17.4855273 C6.96174545,17.7329455 6.70909091,18.1047273 6.13963636,17.9633455 C6.15927273,17.9921455 4.67738182,17.5981091 4.67738182,17.5981091 L3.67854545,19.9008 L6.29541818,20.5527273 C6.7824,20.6744727 7.25890909,20.8027636 7.72887273,20.9232 L6.89629091,24.2653091 L8.90443636,24.7666909 L9.72916364,21.4599273 C10.2776727,21.6091636 10.8104727,21.7466182 11.3314909,21.8762182 L10.5106909,25.1672727 L12.5214545,25.6686545 L13.3540364,22.3330909 C16.7838545,22.9824 19.3614545,22.7205818 20.448,19.6180364 C21.3224727,17.1202909 20.4048,15.6802909 18.6008727,14.7403636 C19.9152,14.4379636 20.9048727,13.5726545 21.168,11.7870545 C21.5345455,9.34952727 19.6769455,8.03912727 17.1386182,7.16465455 Z M16.0769455,17.6845091 C15.5441455,19.8248727 11.9402182,18.6676364 10.7712,18.3783273 L11.7176727,14.5832727 C12.8866909,14.8752 16.6333091,15.4525091 16.0769455,17.6845091 Z M16.6097455,12.1313455 C16.1240727,14.0779636 13.1236364,13.0896 12.1509818,12.8461091 L13.0097455,9.40450909 C13.9824,9.64669091 17.1163636,10.0996364 16.6097455,12.1313455 Z" id="Shape" transform="translate(12.446377, 14.062909) rotate(-15.000000) translate(-12.446377, -14.062909) "></path>
        </g>
    </g>
</svg>